<svg width="27" height="28" viewBox="0 0 27 28" fill="none" xmlns="http://www.w3.org/2000/svg">
<path d="M25.5098 23.408V14.3966C25.5098 13.6705 25.3626 12.9519 25.0769 12.2847C24.7913 11.6174 24.3734 11.0154 23.8485 10.5153L15.3389 2.40872C14.8429 1.93612 14.1848 1.67261 13.5007 1.67261C12.8166 1.67261 12.1585 1.93612 11.6625 2.40872L3.15159 10.5153C2.6267 11.0154 2.20874 11.6174 1.92313 12.2847C1.63752 12.9519 1.49023 13.6705 1.49023 14.3966V23.408C1.49023 24.1179 1.77142 24.7987 2.27192 25.3007C2.77243 25.8027 3.45126 26.0847 4.15908 26.0847H22.841C23.5488 26.0847 24.2276 25.8027 24.7282 25.3007C25.2287 24.7987 25.5098 24.1179 25.5098 23.408Z" stroke="#1790F7" stroke-width="2" stroke-linecap="round" stroke-linejoin="round"/>
<path d="M9.49609 18.0545C9.49609 17.3445 9.77728 16.6637 10.2778 16.1617C10.7783 15.6597 11.4571 15.3777 12.1649 15.3777H14.8338C15.5416 15.3777 16.2204 15.6597 16.7209 16.1617C17.2214 16.6637 17.5026 17.3445 17.5026 18.0545V26.0848H9.49609V18.0545Z" stroke="#1790F7" stroke-width="2" stroke-linecap="round" stroke-linejoin="round"/>
</svg>
