<svg width="120" height="73" viewBox="0 0 120 73" fill="none" xmlns="http://www.w3.org/2000/svg">
<path d="M37.6016 60V58.452H39.0056V53.148H37.6016V51.6H42.2096V53.148H40.8056V58.452H42.2096V60H37.6016ZM43.9409 60V53.652H45.5729L45.6209 54.948L45.2849 55.092C45.3729 54.804 45.5289 54.544 45.7529 54.312C45.9849 54.072 46.2609 53.88 46.5809 53.736C46.9009 53.592 47.2369 53.52 47.5889 53.52C48.0689 53.52 48.4689 53.616 48.7889 53.808C49.1169 54 49.3609 54.292 49.5209 54.684C49.6889 55.068 49.7729 55.544 49.7729 56.112V60H48.0689V56.244C48.0689 55.956 48.0289 55.716 47.9489 55.524C47.8689 55.332 47.7449 55.192 47.5769 55.104C47.4169 55.008 47.2169 54.968 46.9769 54.984C46.7849 54.984 46.6049 55.016 46.4369 55.08C46.2769 55.136 46.1369 55.22 46.0169 55.332C45.9049 55.444 45.8129 55.572 45.7409 55.716C45.6769 55.86 45.6449 56.016 45.6449 56.184V60H44.8049C44.6209 60 44.4569 60 44.3129 60C44.1689 60 44.0449 60 43.9409 60ZM51.3457 60V53.652H53.0497V60H51.3457ZM51.2737 52.872L50.7577 52.08L52.7617 50.448L53.6137 51.612L51.2737 52.872ZM57.4587 60.12C56.8507 60.12 56.3067 59.976 55.8267 59.688C55.3467 59.4 54.9667 59.008 54.6867 58.512C54.4147 58.016 54.2787 57.452 54.2787 56.82C54.2787 56.196 54.4147 55.636 54.6867 55.14C54.9667 54.636 55.3467 54.24 55.8267 53.952C56.3067 53.664 56.8507 53.52 57.4587 53.52C58.0267 53.52 58.5467 53.624 59.0187 53.832C59.4907 54.04 59.8587 54.328 60.1227 54.696L59.1867 55.824C59.0747 55.672 58.9347 55.536 58.7667 55.416C58.5987 55.288 58.4147 55.188 58.2147 55.116C58.0227 55.044 57.8227 55.008 57.6147 55.008C57.2867 55.008 56.9947 55.088 56.7387 55.248C56.4907 55.4 56.2947 55.612 56.1507 55.884C56.0067 56.156 55.9347 56.468 55.9347 56.82C55.9347 57.164 56.0067 57.472 56.1507 57.744C56.3027 58.008 56.5067 58.224 56.7627 58.392C57.0187 58.552 57.3067 58.632 57.6267 58.632C57.8347 58.632 58.0307 58.604 58.2147 58.548C58.3987 58.484 58.5707 58.392 58.7307 58.272C58.8987 58.152 59.0507 58.008 59.1867 57.84L60.1107 58.968C59.8387 59.312 59.4627 59.592 58.9827 59.808C58.5027 60.016 57.9947 60.12 57.4587 60.12ZM61.3466 60V53.652H63.0506V60H61.3466ZM62.1866 52.344C61.8586 52.344 61.6026 52.264 61.4186 52.104C61.2346 51.944 61.1426 51.716 61.1426 51.42C61.1426 51.148 61.2346 50.928 61.4186 50.76C61.6106 50.584 61.8666 50.496 62.1866 50.496C62.5146 50.496 62.7706 50.58 62.9546 50.748C63.1386 50.908 63.2306 51.132 63.2306 51.42C63.2306 51.7 63.1346 51.924 62.9426 52.092C62.7586 52.26 62.5066 52.344 62.1866 52.344ZM67.8226 60.12C67.1746 60.12 66.5946 59.98 66.0826 59.7C65.5786 59.412 65.1786 59.02 64.8826 58.524C64.5946 58.028 64.4506 57.46 64.4506 56.82C64.4506 56.18 64.5946 55.616 64.8826 55.128C65.1786 54.632 65.5786 54.24 66.0826 53.952C66.5946 53.664 67.1746 53.52 67.8226 53.52C68.4626 53.52 69.0346 53.664 69.5386 53.952C70.0506 54.24 70.4506 54.632 70.7386 55.128C71.0266 55.616 71.1706 56.18 71.1706 56.82C71.1706 57.46 71.0266 58.028 70.7386 58.524C70.4506 59.02 70.0506 59.412 69.5386 59.7C69.0346 59.98 68.4626 60.12 67.8226 60.12ZM67.8226 58.632C68.1346 58.632 68.4146 58.556 68.6626 58.404C68.9106 58.244 69.1026 58.028 69.2386 57.756C69.3826 57.476 69.4546 57.164 69.4546 56.82C69.4546 56.468 69.3826 56.156 69.2386 55.884C69.1026 55.604 68.9106 55.388 68.6626 55.236C68.4146 55.076 68.1346 54.996 67.8226 54.996C67.5026 54.996 67.2186 55.076 66.9706 55.236C66.7226 55.396 66.5266 55.612 66.3826 55.884C66.2386 56.156 66.1706 56.468 66.1786 56.82C66.1706 57.164 66.2386 57.476 66.3826 57.756C66.5266 58.028 66.7226 58.244 66.9706 58.404C67.2186 58.556 67.5026 58.632 67.8226 58.632Z" fill="#407BFF"/>
<path d="M66.5098 40.408V31.3966C66.5098 30.6705 66.3626 29.9519 66.0769 29.2847C65.7913 28.6174 65.3734 28.0154 64.8485 27.5153L56.3389 19.4087C55.8429 18.9361 55.1848 18.6726 54.5007 18.6726C53.8166 18.6726 53.1585 18.9361 52.6625 19.4087L44.1516 27.5153C43.6267 28.0154 43.2087 28.6174 42.9231 29.2847C42.6375 29.9519 42.4902 30.6705 42.4902 31.3966V40.408C42.4902 41.1179 42.7714 41.7987 43.2719 42.3007C43.7724 42.8027 44.4513 43.0847 45.1591 43.0847H63.841C64.5488 43.0847 65.2276 42.8027 65.7282 42.3007C66.2287 41.7987 66.5098 41.1179 66.5098 40.408Z" stroke="#1790F7" stroke-width="2" stroke-linecap="round" stroke-linejoin="round"/>
<path d="M50.4961 35.0545C50.4961 34.3445 50.7773 33.6637 51.2778 33.1617C51.7783 32.6597 52.4571 32.3777 53.1649 32.3777H55.8338C56.5416 32.3777 57.2204 32.6597 57.7209 33.1617C58.2214 33.6637 58.5026 34.3445 58.5026 35.0545V43.0848H50.4961V35.0545Z" stroke="#1790F7" stroke-width="2" stroke-linecap="round" stroke-linejoin="round"/>
</svg>
