<svg width="15" height="16" viewBox="0 0 15 16" fill="none" xmlns="http://www.w3.org/2000/svg">
<path d="M13.5511 15.4783L8.77841 10.72C8.35227 11.0598 7.86222 11.3289 7.30824 11.5272C6.75426 11.7254 6.16477 11.8246 5.53977 11.8246C3.99148 11.8246 2.68125 11.2901 1.60909 10.2212C0.536364 9.15169 0 7.84513 0 6.30151C0 4.75788 0.536364 3.45132 1.60909 2.38183C2.68125 1.3129 3.99148 0.778437 5.53977 0.778437C7.08807 0.778437 8.39858 1.3129 9.47131 2.38183C10.5435 3.45132 11.0795 4.75788 11.0795 6.30151C11.0795 6.92462 10.9801 7.51233 10.7812 8.06464C10.5824 8.61695 10.3125 9.10553 9.97159 9.53038L14.7656 14.31C14.9219 14.4657 15 14.6569 15 14.8835C15 15.1101 14.9148 15.3084 14.7443 15.4783C14.5881 15.6341 14.3892 15.712 14.1477 15.712C13.9062 15.712 13.7074 15.6341 13.5511 15.4783V15.4783ZM5.53977 10.1252C6.60511 10.1252 7.51079 9.75357 8.25682 9.01036C9.00227 8.26659 9.375 7.36364 9.375 6.30151C9.375 5.23938 9.00227 4.33643 8.25682 3.59265C7.51079 2.84945 6.60511 2.47784 5.53977 2.47784C4.47443 2.47784 3.56875 2.84945 2.82273 3.59265C2.07727 4.33643 1.70455 5.23938 1.70455 6.30151C1.70455 7.36364 2.07727 8.26659 2.82273 9.01036C3.56875 9.75357 4.47443 10.1252 5.53977 10.1252Z" fill="white"/>
</svg>
