<svg width="360" height="73" viewBox="0 0 360 73" fill="none" xmlns="http://www.w3.org/2000/svg">
<rect width="360" height="73" fill="#FFFAFA"/>
<path d="M302.5 19.6365C300.858 19.6365 299.233 19.9522 297.716 20.5655C296.2 21.1788 294.822 22.0778 293.661 23.2111C291.317 25.4999 290 28.6041 290 31.8409C290 35.0778 291.317 38.182 293.661 40.4708C294.822 41.6041 296.2 42.503 297.716 43.1164C299.233 43.7297 300.858 44.0454 302.5 44.0454C305.815 44.0454 308.995 42.7596 311.339 40.4708C313.683 38.182 315 35.0778 315 31.8409C315 30.2382 314.677 28.6512 314.048 27.1705C313.42 25.6898 312.5 24.3444 311.339 23.2111C310.178 22.0778 308.8 21.1788 307.284 20.5655C305.767 19.9522 304.142 19.6365 302.5 19.6365ZM296.338 39.5053C296.875 38.4069 300.15 37.3329 302.5 37.3329C304.85 37.3329 308.125 38.4069 308.663 39.5053C306.912 40.8674 304.739 41.6076 302.5 41.6045C300.175 41.6045 298.038 40.8234 296.338 39.5053ZM310.45 37.7357C308.663 35.6121 304.325 34.892 302.5 34.892C300.675 34.892 296.337 35.6121 294.55 37.7357C293.22 36.0449 292.5 33.9727 292.5 31.8409C292.5 26.4588 296.988 22.0774 302.5 22.0774C308.013 22.0774 312.5 26.4588 312.5 31.8409C312.5 34.0621 311.725 36.1125 310.45 37.7357ZM302.5 24.5183C300.075 24.5183 298.125 26.4222 298.125 28.7898C298.125 31.1575 300.075 33.0614 302.5 33.0614C304.925 33.0614 306.875 31.1575 306.875 28.7898C306.875 26.4222 304.925 24.5183 302.5 24.5183ZM302.5 30.6205C302.003 30.6205 301.526 30.4276 301.174 30.0843C300.823 29.741 300.625 29.2753 300.625 28.7898C300.625 28.3043 300.823 27.8387 301.174 27.4953C301.526 27.152 302.003 26.9591 302.5 26.9591C302.997 26.9591 303.474 27.152 303.826 27.4953C304.177 27.8387 304.375 28.3043 304.375 28.7898C304.375 29.2753 304.177 29.741 303.826 30.0843C303.474 30.4276 302.997 30.6205 302.5 30.6205Z" fill="#1790F7"/>
<path d="M287.092 62V53.6H290.656C291.152 53.6 291.6 53.72 292 53.96C292.408 54.192 292.728 54.512 292.96 54.92C293.2 55.328 293.32 55.788 293.32 56.3C293.32 56.82 293.2 57.288 292.96 57.704C292.728 58.12 292.408 58.452 292 58.7C291.6 58.94 291.152 59.06 290.656 59.06H288.892V62H287.092ZM288.868 57.44H290.452C290.644 57.44 290.816 57.392 290.968 57.296C291.12 57.192 291.24 57.056 291.328 56.888C291.424 56.72 291.472 56.528 291.472 56.312C291.472 56.096 291.424 55.908 291.328 55.748C291.24 55.58 291.12 55.452 290.968 55.364C290.816 55.268 290.644 55.22 290.452 55.22H288.868V57.44ZM297.587 62.12C296.899 62.12 296.299 61.98 295.787 61.7C295.275 61.42 294.875 61.036 294.587 60.548C294.299 60.06 294.155 59.5 294.155 58.868C294.155 58.38 294.235 57.932 294.395 57.524C294.555 57.116 294.779 56.764 295.067 56.468C295.355 56.164 295.695 55.932 296.087 55.772C296.487 55.604 296.919 55.52 297.383 55.52C297.815 55.52 298.215 55.6 298.583 55.76C298.951 55.912 299.267 56.132 299.531 56.42C299.803 56.7 300.011 57.032 300.155 57.416C300.299 57.8 300.363 58.22 300.347 58.676L300.335 59.204H295.235L294.959 58.16H298.931L298.739 58.376V58.112C298.723 57.896 298.651 57.7 298.523 57.524C298.403 57.348 298.247 57.212 298.055 57.116C297.863 57.02 297.647 56.972 297.407 56.972C297.055 56.972 296.755 57.04 296.507 57.176C296.267 57.312 296.083 57.512 295.955 57.776C295.827 58.04 295.763 58.36 295.763 58.736C295.763 59.12 295.843 59.452 296.003 59.732C296.171 60.012 296.403 60.232 296.699 60.392C297.003 60.544 297.359 60.62 297.767 60.62C298.047 60.62 298.303 60.576 298.535 60.488C298.767 60.4 299.015 60.248 299.279 60.032L300.095 61.172C299.863 61.38 299.607 61.556 299.327 61.7C299.047 61.836 298.759 61.94 298.463 62.012C298.167 62.084 297.875 62.12 297.587 62.12ZM301.606 62V55.652H303.25L303.31 57.692L303.022 57.272C303.118 56.944 303.274 56.648 303.49 56.384C303.706 56.112 303.958 55.9 304.246 55.748C304.542 55.596 304.85 55.52 305.17 55.52C305.306 55.52 305.438 55.532 305.566 55.556C305.694 55.58 305.802 55.608 305.89 55.64L305.434 57.512C305.338 57.464 305.222 57.424 305.086 57.392C304.95 57.352 304.81 57.332 304.666 57.332C304.474 57.332 304.294 57.368 304.126 57.44C303.966 57.504 303.826 57.6 303.706 57.728C303.586 57.848 303.49 57.992 303.418 58.16C303.354 58.328 303.322 58.512 303.322 58.712V62H301.606ZM307.36 62V55.208C307.36 54.816 307.448 54.46 307.624 54.14C307.8 53.82 308.04 53.568 308.344 53.384C308.656 53.2 309.02 53.108 309.436 53.108C309.716 53.108 309.98 53.156 310.228 53.252C310.476 53.34 310.688 53.464 310.864 53.624L310.36 54.872C310.256 54.808 310.148 54.756 310.036 54.716C309.932 54.668 309.836 54.644 309.748 54.644C309.596 54.644 309.468 54.672 309.364 54.728C309.268 54.776 309.196 54.852 309.148 54.956C309.1 55.052 309.076 55.176 309.076 55.328V62H308.224C308.04 62 307.876 62 307.732 62C307.588 62 307.464 62 307.36 62ZM306.412 57.248V55.808H310.444V57.248H306.412ZM311.728 62V55.652H313.432V62H311.728ZM312.568 54.344C312.24 54.344 311.984 54.264 311.8 54.104C311.616 53.944 311.524 53.716 311.524 53.42C311.524 53.148 311.616 52.928 311.8 52.76C311.992 52.584 312.248 52.496 312.568 52.496C312.896 52.496 313.152 52.58 313.336 52.748C313.52 52.908 313.612 53.132 313.612 53.42C313.612 53.7 313.516 53.924 313.324 54.092C313.14 54.26 312.888 54.344 312.568 54.344ZM315.27 62V53.12H316.974V62H315.27Z" fill="#1790F7"/>
<path d="M178.5 29.7758V31.8867C176.843 31.8867 175.253 32.5538 174.081 33.7414C172.909 34.929 172.25 36.5397 172.25 38.2192H170.167C170.167 35.9799 171.045 33.8323 172.608 32.2488C174.171 30.6654 176.29 29.7758 178.5 29.7758ZM178.5 28.7204C175.047 28.7204 172.25 25.8866 172.25 22.3879C172.25 18.8892 175.047 16.0554 178.5 16.0554C181.953 16.0554 184.75 18.8892 184.75 22.3879C184.75 25.8866 181.953 28.7204 178.5 28.7204ZM178.5 26.6096C180.802 26.6096 182.667 24.7204 182.667 22.3879C182.667 20.0554 180.802 18.1663 178.5 18.1663C176.198 18.1663 174.334 20.0554 174.334 22.3879C174.334 24.7204 176.198 26.6096 178.5 26.6096ZM188.34 36.1421L189.907 37.7295L188.434 39.2218L186.867 37.6345C185.993 38.1564 184.962 38.3375 183.966 38.144C182.97 37.9505 182.078 37.3955 181.457 36.5832C180.836 35.7709 180.528 34.7569 180.592 33.7314C180.656 32.7059 181.087 31.7393 181.804 31.0127C182.522 30.2861 183.476 29.8495 184.488 29.7846C185.5 29.7198 186.501 30.0312 187.302 30.6604C188.104 31.2897 188.652 32.1936 188.843 33.2027C189.034 34.2119 188.855 35.257 188.34 36.1421ZM184.75 36.1083C185.303 36.1083 185.833 35.8859 186.223 35.4901C186.614 35.0942 186.834 34.5573 186.834 33.9975C186.834 33.4377 186.614 32.9008 186.223 32.5049C185.833 32.1091 185.303 31.8867 184.75 31.8867C184.198 31.8867 183.668 32.1091 183.277 32.5049C182.886 32.9008 182.667 33.4377 182.667 33.9975C182.667 34.5573 182.886 35.0942 183.277 35.4901C183.668 35.8859 184.198 36.1083 184.75 36.1083Z" fill="#1790F7"/>
<path d="M151.092 58.3301V49.9301H154.656C155.152 49.9301 155.6 50.0501 156 50.2901C156.408 50.5221 156.728 50.8421 156.96 51.2501C157.2 51.6581 157.32 52.1181 157.32 52.6301C157.32 53.1501 157.2 53.6181 156.96 54.0341C156.728 54.4501 156.408 54.7821 156 55.0301C155.6 55.2701 155.152 55.3901 154.656 55.3901H152.892V58.3301H151.092ZM152.868 53.7701H154.452C154.644 53.7701 154.816 53.7221 154.968 53.6261C155.12 53.5221 155.24 53.3861 155.328 53.2181C155.424 53.0501 155.472 52.8581 155.472 52.6421C155.472 52.4261 155.424 52.2381 155.328 52.0781C155.24 51.9101 155.12 51.7821 154.968 51.6941C154.816 51.5981 154.644 51.5501 154.452 51.5501H152.868V53.7701ZM160.951 58.4501C160.423 58.4501 159.947 58.3061 159.523 58.0181C159.099 57.7301 158.763 57.3381 158.515 56.8421C158.267 56.3461 158.143 55.7781 158.143 55.1381C158.143 54.4981 158.267 53.9341 158.515 53.4461C158.771 52.9501 159.115 52.5621 159.547 52.2821C159.979 51.9941 160.471 51.8501 161.023 51.8501C161.335 51.8501 161.619 51.8981 161.875 51.9941C162.139 52.0821 162.367 52.2061 162.559 52.3661C162.759 52.5261 162.927 52.7101 163.063 52.9181C163.199 53.1261 163.295 53.3501 163.351 53.5901L162.991 53.5301V51.9821H164.683V58.3301H162.967V56.8061L163.351 56.7701C163.287 56.9941 163.183 57.2061 163.039 57.4061C162.895 57.6061 162.715 57.7861 162.499 57.9461C162.291 58.0981 162.055 58.2221 161.791 58.3181C161.527 58.4061 161.247 58.4501 160.951 58.4501ZM161.419 56.9741C161.739 56.9741 162.019 56.8981 162.259 56.7461C162.499 56.5941 162.683 56.3821 162.811 56.1101C162.947 55.8301 163.015 55.5061 163.015 55.1381C163.015 54.7781 162.947 54.4621 162.811 54.1901C162.683 53.9181 162.499 53.7061 162.259 53.5541C162.019 53.3941 161.739 53.3141 161.419 53.3141C161.107 53.3141 160.831 53.3941 160.591 53.5541C160.359 53.7061 160.175 53.9181 160.039 54.1901C159.903 54.4621 159.835 54.7781 159.835 55.1381C159.835 55.5061 159.903 55.8301 160.039 56.1101C160.175 56.3821 160.359 56.5941 160.591 56.7461C160.831 56.8981 161.107 56.9741 161.419 56.9741ZM169.151 58.4501C168.543 58.4501 167.999 58.3061 167.519 58.0181C167.039 57.7301 166.659 57.3381 166.379 56.8421C166.107 56.3461 165.971 55.7821 165.971 55.1501C165.971 54.5261 166.107 53.9661 166.379 53.4701C166.659 52.9661 167.039 52.5701 167.519 52.2821C167.999 51.9941 168.543 51.8501 169.151 51.8501C169.719 51.8501 170.239 51.9541 170.711 52.1621C171.183 52.3701 171.551 52.6581 171.815 53.0261L170.879 54.1541C170.767 54.0021 170.627 53.8661 170.459 53.7461C170.291 53.6181 170.107 53.5181 169.907 53.4461C169.715 53.3741 169.515 53.3381 169.307 53.3381C168.979 53.3381 168.687 53.4181 168.431 53.5781C168.183 53.7301 167.987 53.9421 167.843 54.2141C167.699 54.4861 167.627 54.7981 167.627 55.1501C167.627 55.4941 167.699 55.8021 167.843 56.0741C167.995 56.3381 168.199 56.5541 168.455 56.7221C168.711 56.8821 168.999 56.9621 169.319 56.9621C169.527 56.9621 169.723 56.9341 169.907 56.8781C170.091 56.8141 170.263 56.7221 170.423 56.6021C170.591 56.4821 170.743 56.3381 170.879 56.1701L171.803 57.2981C171.531 57.6421 171.155 57.9221 170.675 58.1381C170.195 58.3461 169.687 58.4501 169.151 58.4501ZM173.039 58.3301V51.9821H174.743V58.3301H173.039ZM173.879 50.6741C173.551 50.6741 173.295 50.5941 173.111 50.4341C172.927 50.2741 172.835 50.0461 172.835 49.7501C172.835 49.4781 172.927 49.2581 173.111 49.0901C173.303 48.9141 173.559 48.8261 173.879 48.8261C174.207 48.8261 174.463 48.9101 174.647 49.0781C174.831 49.2381 174.923 49.4621 174.923 49.7501C174.923 50.0301 174.827 50.2541 174.635 50.4221C174.451 50.5901 174.199 50.6741 173.879 50.6741ZM179.575 58.4501C178.887 58.4501 178.287 58.3101 177.775 58.0301C177.263 57.7501 176.863 57.3661 176.575 56.8781C176.287 56.3901 176.143 55.8301 176.143 55.1981C176.143 54.7101 176.223 54.2621 176.383 53.8541C176.543 53.4461 176.767 53.0941 177.055 52.7981C177.343 52.4941 177.683 52.2621 178.075 52.1021C178.475 51.9341 178.907 51.8501 179.371 51.8501C179.803 51.8501 180.203 51.9301 180.571 52.0901C180.939 52.2421 181.255 52.4621 181.519 52.7501C181.791 53.0301 181.999 53.3621 182.143 53.7461C182.287 54.1301 182.351 54.5501 182.335 55.0061L182.323 55.5341H177.223L176.947 54.4901H180.919L180.727 54.7061V54.4421C180.711 54.2261 180.639 54.0301 180.511 53.8541C180.391 53.6781 180.235 53.5421 180.043 53.4461C179.851 53.3501 179.635 53.3021 179.395 53.3021C179.043 53.3021 178.743 53.3701 178.495 53.5061C178.255 53.6421 178.071 53.8421 177.943 54.1061C177.815 54.3701 177.751 54.6901 177.751 55.0661C177.751 55.4501 177.831 55.7821 177.991 56.0621C178.159 56.3421 178.391 56.5621 178.687 56.7221C178.991 56.8741 179.347 56.9501 179.755 56.9501C180.035 56.9501 180.291 56.9061 180.523 56.8181C180.755 56.7301 181.003 56.5781 181.267 56.3621L182.083 57.5021C181.851 57.7101 181.595 57.8861 181.315 58.0301C181.035 58.1661 180.747 58.2701 180.451 58.3421C180.155 58.4141 179.863 58.4501 179.575 58.4501ZM183.594 58.3301V51.9821H185.226L185.274 53.2781L184.938 53.4221C185.026 53.1341 185.182 52.8741 185.406 52.6421C185.638 52.4021 185.914 52.2101 186.234 52.0661C186.554 51.9221 186.89 51.8501 187.242 51.8501C187.722 51.8501 188.122 51.9461 188.442 52.1381C188.77 52.3301 189.014 52.6221 189.174 53.0141C189.342 53.3981 189.426 53.8741 189.426 54.4421V58.3301H187.722V54.5741C187.722 54.2861 187.682 54.0461 187.602 53.8541C187.522 53.6621 187.398 53.5221 187.23 53.4341C187.07 53.3381 186.87 53.2981 186.63 53.3141C186.438 53.3141 186.258 53.3461 186.09 53.4101C185.93 53.4661 185.79 53.5501 185.67 53.6621C185.558 53.7741 185.466 53.9021 185.394 54.0461C185.33 54.1901 185.298 54.3461 185.298 54.5141V58.3301H184.458C184.274 58.3301 184.11 58.3301 183.966 58.3301C183.822 58.3301 183.698 58.3301 183.594 58.3301ZM191.671 58.3301V50.3741H193.375V58.3301H191.671ZM190.483 53.5061V51.9821H194.671V53.5061H190.483ZM198.735 58.4501C198.047 58.4501 197.447 58.3101 196.935 58.0301C196.423 57.7501 196.023 57.3661 195.735 56.8781C195.447 56.3901 195.303 55.8301 195.303 55.1981C195.303 54.7101 195.383 54.2621 195.543 53.8541C195.703 53.4461 195.927 53.0941 196.215 52.7981C196.503 52.4941 196.843 52.2621 197.235 52.1021C197.635 51.9341 198.067 51.8501 198.531 51.8501C198.963 51.8501 199.363 51.9301 199.731 52.0901C200.099 52.2421 200.415 52.4621 200.679 52.7501C200.951 53.0301 201.159 53.3621 201.303 53.7461C201.447 54.1301 201.511 54.5501 201.495 55.0061L201.483 55.5341H196.383L196.107 54.4901H200.079L199.887 54.7061V54.4421C199.871 54.2261 199.799 54.0301 199.671 53.8541C199.551 53.6781 199.395 53.5421 199.203 53.4461C199.011 53.3501 198.795 53.3021 198.555 53.3021C198.203 53.3021 197.903 53.3701 197.655 53.5061C197.415 53.6421 197.231 53.8421 197.103 54.1061C196.975 54.3701 196.911 54.6901 196.911 55.0661C196.911 55.4501 196.991 55.7821 197.151 56.0621C197.319 56.3421 197.551 56.5621 197.847 56.7221C198.151 56.8741 198.507 56.9501 198.915 56.9501C199.195 56.9501 199.451 56.9061 199.683 56.8181C199.915 56.7301 200.163 56.5781 200.427 56.3621L201.243 57.5021C201.011 57.7101 200.755 57.8861 200.475 58.0301C200.195 58.1661 199.907 58.2701 199.611 58.3421C199.315 58.4141 199.023 58.4501 198.735 58.4501ZM204.89 58.4501C204.298 58.4501 203.77 58.3541 203.306 58.1621C202.85 57.9621 202.482 57.6901 202.202 57.3461L203.258 56.4341C203.506 56.6981 203.782 56.8901 204.086 57.0101C204.39 57.1221 204.694 57.1781 204.998 57.1781C205.118 57.1781 205.226 57.1661 205.322 57.1421C205.426 57.1101 205.514 57.0701 205.586 57.0221C205.658 56.9661 205.71 56.9021 205.742 56.8301C205.782 56.7501 205.802 56.6661 205.802 56.5781C205.802 56.4021 205.73 56.2621 205.586 56.1581C205.506 56.1181 205.382 56.0701 205.214 56.0141C205.046 55.9501 204.83 55.8821 204.566 55.8101C204.158 55.7061 203.81 55.5861 203.522 55.4501C203.242 55.3061 203.018 55.1461 202.85 54.9701C202.706 54.8021 202.594 54.6221 202.514 54.4301C202.442 54.2301 202.406 54.0101 202.406 53.7701C202.406 53.4821 202.47 53.2221 202.598 52.9901C202.726 52.7501 202.902 52.5461 203.126 52.3781C203.358 52.2101 203.622 52.0821 203.918 51.9941C204.214 51.8981 204.526 51.8501 204.854 51.8501C205.182 51.8501 205.502 51.8901 205.814 51.9701C206.126 52.0501 206.414 52.1661 206.678 52.3181C206.95 52.4621 207.186 52.6341 207.386 52.8341L206.474 53.8421C206.33 53.7061 206.166 53.5821 205.982 53.4701C205.806 53.3581 205.622 53.2701 205.43 53.2061C205.238 53.1421 205.066 53.1101 204.914 53.1101C204.778 53.1101 204.654 53.1221 204.542 53.1461C204.438 53.1701 204.35 53.2061 204.278 53.2541C204.206 53.3021 204.15 53.3661 204.11 53.4461C204.078 53.5181 204.062 53.5981 204.062 53.6861C204.062 53.7741 204.082 53.8581 204.122 53.9381C204.17 54.0181 204.234 54.0861 204.314 54.1421C204.402 54.1901 204.53 54.2461 204.698 54.3101C204.874 54.3741 205.11 54.4461 205.406 54.5261C205.79 54.6301 206.114 54.7461 206.378 54.8741C206.65 55.0021 206.866 55.1501 207.026 55.3181C207.162 55.4621 207.262 55.6261 207.326 55.8101C207.39 55.9941 207.422 56.1981 207.422 56.4221C207.422 56.8141 207.31 57.1661 207.086 57.4781C206.87 57.7821 206.57 58.0221 206.186 58.1981C205.802 58.3661 205.37 58.4501 204.89 58.4501Z" fill="#1790F7"/>
<path d="M37.6016 60V58.452H39.0056V53.148H37.6016V51.6H42.2096V53.148H40.8056V58.452H42.2096V60H37.6016ZM43.9409 60V53.652H45.5729L45.6209 54.948L45.2849 55.092C45.3729 54.804 45.5289 54.544 45.7529 54.312C45.9849 54.072 46.2609 53.88 46.5809 53.736C46.9009 53.592 47.2369 53.52 47.5889 53.52C48.0689 53.52 48.4689 53.616 48.7889 53.808C49.1169 54 49.3609 54.292 49.5209 54.684C49.6889 55.068 49.7729 55.544 49.7729 56.112V60H48.0689V56.244C48.0689 55.956 48.0289 55.716 47.9489 55.524C47.8689 55.332 47.7449 55.192 47.5769 55.104C47.4169 55.008 47.2169 54.968 46.9769 54.984C46.7849 54.984 46.6049 55.016 46.4369 55.08C46.2769 55.136 46.1369 55.22 46.0169 55.332C45.9049 55.444 45.8129 55.572 45.7409 55.716C45.6769 55.86 45.6449 56.016 45.6449 56.184V60H44.8049C44.6209 60 44.4569 60 44.3129 60C44.1689 60 44.0449 60 43.9409 60ZM51.3457 60V53.652H53.0497V60H51.3457ZM51.2737 52.872L50.7577 52.08L52.7617 50.448L53.6137 51.612L51.2737 52.872ZM57.4587 60.12C56.8507 60.12 56.3067 59.976 55.8267 59.688C55.3467 59.4 54.9667 59.008 54.6867 58.512C54.4147 58.016 54.2787 57.452 54.2787 56.82C54.2787 56.196 54.4147 55.636 54.6867 55.14C54.9667 54.636 55.3467 54.24 55.8267 53.952C56.3067 53.664 56.8507 53.52 57.4587 53.52C58.0267 53.52 58.5467 53.624 59.0187 53.832C59.4907 54.04 59.8587 54.328 60.1227 54.696L59.1867 55.824C59.0747 55.672 58.9347 55.536 58.7667 55.416C58.5987 55.288 58.4147 55.188 58.2147 55.116C58.0227 55.044 57.8227 55.008 57.6147 55.008C57.2867 55.008 56.9947 55.088 56.7387 55.248C56.4907 55.4 56.2947 55.612 56.1507 55.884C56.0067 56.156 55.9347 56.468 55.9347 56.82C55.9347 57.164 56.0067 57.472 56.1507 57.744C56.3027 58.008 56.5067 58.224 56.7627 58.392C57.0187 58.552 57.3067 58.632 57.6267 58.632C57.8347 58.632 58.0307 58.604 58.2147 58.548C58.3987 58.484 58.5707 58.392 58.7307 58.272C58.8987 58.152 59.0507 58.008 59.1867 57.84L60.1107 58.968C59.8387 59.312 59.4627 59.592 58.9827 59.808C58.5027 60.016 57.9947 60.12 57.4587 60.12ZM61.3466 60V53.652H63.0506V60H61.3466ZM62.1866 52.344C61.8586 52.344 61.6026 52.264 61.4186 52.104C61.2346 51.944 61.1426 51.716 61.1426 51.42C61.1426 51.148 61.2346 50.928 61.4186 50.76C61.6106 50.584 61.8666 50.496 62.1866 50.496C62.5146 50.496 62.7706 50.58 62.9546 50.748C63.1386 50.908 63.2306 51.132 63.2306 51.42C63.2306 51.7 63.1346 51.924 62.9426 52.092C62.7586 52.26 62.5066 52.344 62.1866 52.344ZM67.8226 60.12C67.1746 60.12 66.5946 59.98 66.0826 59.7C65.5786 59.412 65.1786 59.02 64.8826 58.524C64.5946 58.028 64.4506 57.46 64.4506 56.82C64.4506 56.18 64.5946 55.616 64.8826 55.128C65.1786 54.632 65.5786 54.24 66.0826 53.952C66.5946 53.664 67.1746 53.52 67.8226 53.52C68.4626 53.52 69.0346 53.664 69.5386 53.952C70.0506 54.24 70.4506 54.632 70.7386 55.128C71.0266 55.616 71.1706 56.18 71.1706 56.82C71.1706 57.46 71.0266 58.028 70.7386 58.524C70.4506 59.02 70.0506 59.412 69.5386 59.7C69.0346 59.98 68.4626 60.12 67.8226 60.12ZM67.8226 58.632C68.1346 58.632 68.4146 58.556 68.6626 58.404C68.9106 58.244 69.1026 58.028 69.2386 57.756C69.3826 57.476 69.4546 57.164 69.4546 56.82C69.4546 56.468 69.3826 56.156 69.2386 55.884C69.1026 55.604 68.9106 55.388 68.6626 55.236C68.4146 55.076 68.1346 54.996 67.8226 54.996C67.5026 54.996 67.2186 55.076 66.9706 55.236C66.7226 55.396 66.5266 55.612 66.3826 55.884C66.2386 56.156 66.1706 56.468 66.1786 56.82C66.1706 57.164 66.2386 57.476 66.3826 57.756C66.5266 58.028 66.7226 58.244 66.9706 58.404C67.2186 58.556 67.5026 58.632 67.8226 58.632Z" fill="#407BFF"/>
<path d="M66.5098 40.408V31.3966C66.5098 30.6705 66.3626 29.9519 66.0769 29.2847C65.7913 28.6174 65.3734 28.0154 64.8485 27.5153L56.3389 19.4087C55.8429 18.9361 55.1848 18.6726 54.5007 18.6726C53.8166 18.6726 53.1585 18.9361 52.6625 19.4087L44.1516 27.5153C43.6267 28.0154 43.2087 28.6174 42.9231 29.2847C42.6375 29.9519 42.4902 30.6705 42.4902 31.3966V40.408C42.4902 41.1179 42.7714 41.7987 43.2719 42.3007C43.7724 42.8027 44.4513 43.0847 45.1591 43.0847H63.841C64.5488 43.0847 65.2276 42.8027 65.7282 42.3007C66.2287 41.7987 66.5098 41.1179 66.5098 40.408Z" stroke="#1790F7" stroke-width="2" stroke-linecap="round" stroke-linejoin="round"/>
<path d="M50.4961 35.0545C50.4961 34.3445 50.7773 33.6637 51.2778 33.1617C51.7783 32.6597 52.4571 32.3777 53.1649 32.3777H55.8338C56.5416 32.3777 57.2204 32.6597 57.7209 33.1617C58.2214 33.6637 58.5026 34.3445 58.5026 35.0545V43.0848H50.4961V35.0545Z" stroke="#1790F7" stroke-width="2" stroke-linecap="round" stroke-linejoin="round"/>
</svg>
