<svg width="19" height="19" viewBox="0 0 19 19" fill="none" xmlns="http://www.w3.org/2000/svg">
<path d="M11.1563 10.0156C11.1563 10.4266 11.0344 10.8284 10.806 11.1702C10.5777 11.5119 10.2531 11.7783 9.87339 11.9356C9.49366 12.0929 9.07582 12.134 8.6727 12.0538C8.26959 11.9736 7.8993 11.7757 7.60867 11.4851C7.31804 11.1945 7.12012 10.8242 7.03993 10.421C6.95975 10.0179 7.0009 9.60009 7.15819 9.22036C7.31548 8.84063 7.58184 8.51608 7.92358 8.28773C8.26533 8.05938 8.66711 7.9375 9.07813 7.9375C9.62868 7.93946 10.1561 8.15903 10.5454 8.54833C10.9347 8.93763 11.1543 9.46508 11.1563 10.0156ZM9.07813 6.15625C9.48914 6.15625 9.89092 6.03437 10.2327 5.80602C10.5744 5.57768 10.8408 5.25312 10.9981 4.87339C11.1554 4.49366 11.1965 4.07582 11.1163 3.6727C11.0361 3.26959 10.8382 2.8993 10.5476 2.60867C10.257 2.31804 9.88666 2.12012 9.48355 2.03993C9.08043 1.95975 8.66259 2.0009 8.28286 2.15819C7.90313 2.31548 7.57858 2.58184 7.35023 2.92358C7.12188 3.26533 7 3.66711 7 4.07813C7.00196 4.62868 7.22153 5.15612 7.61083 5.54542C8.00013 5.93472 8.52758 6.15429 9.07813 6.15625ZM9.07813 13.875C8.66711 13.875 8.26533 13.9969 7.92358 14.2252C7.58184 14.4536 7.31548 14.7781 7.15819 15.1579C7.0009 15.5376 6.95975 15.9554 7.03993 16.3585C7.12012 16.7617 7.31804 17.132 7.60867 17.4226C7.8993 17.7132 8.26959 17.9111 8.6727 17.9913C9.07582 18.0715 9.49366 18.0304 9.87339 17.8731C10.2531 17.7158 10.5777 17.4494 10.806 17.1077C11.0344 16.7659 11.1563 16.3641 11.1563 15.9531C11.1543 15.4026 10.9347 14.8751 10.5454 14.4858C10.1561 14.0965 9.62868 13.877 9.07813 13.875Z" fill="#868484"/>
</svg>
