<svg width="20" height="24" viewBox="0 0 20 24" fill="none" xmlns="http://www.w3.org/2000/svg">
<path d="M8.50033 13.7758V15.8867C6.84272 15.8867 5.25301 16.5538 4.08091 17.7414C2.90881 18.929 2.25033 20.5397 2.25033 22.2192H0.166992C0.166992 19.9799 1.04497 17.8323 2.60777 16.2488C4.17057 14.6654 6.29019 13.7758 8.50033 13.7758ZM8.50033 12.7204C5.0472 12.7204 2.25033 9.88663 2.25033 6.38792C2.25033 2.88921 5.0472 0.0554199 8.50033 0.0554199C11.9535 0.0554199 14.7503 2.88921 14.7503 6.38792C14.7503 9.88663 11.9535 12.7204 8.50033 12.7204ZM8.50033 10.6096C10.8024 10.6096 12.667 8.72039 12.667 6.38792C12.667 4.05545 10.8024 2.16625 8.50033 2.16625C6.19824 2.16625 4.33366 4.05545 4.33366 6.38792C4.33366 8.72039 6.19824 10.6096 8.50033 10.6096ZM18.3399 20.1421L19.9066 21.7295L18.4337 23.2218L16.867 21.6345C15.9934 22.1564 14.9619 22.3375 13.9659 22.144C12.9699 21.9505 12.0778 21.3955 11.4567 20.5832C10.8357 19.7709 10.5283 18.7569 10.5923 17.7314C10.6564 16.7059 11.0873 15.7393 11.8044 15.0127C12.5215 14.2861 13.4756 13.8495 14.4877 13.7846C15.4998 13.7198 16.5006 14.0312 17.3023 14.6604C18.1041 15.2897 18.6518 16.1936 18.8428 17.2027C19.0338 18.2119 18.855 19.257 18.3399 20.1421ZM14.7503 20.1083C15.3029 20.1083 15.8328 19.8859 16.2235 19.4901C16.6142 19.0942 16.8337 18.5573 16.8337 17.9975C16.8337 17.4377 16.6142 16.9008 16.2235 16.5049C15.8328 16.1091 15.3029 15.8867 14.7503 15.8867C14.1978 15.8867 13.6679 16.1091 13.2772 16.5049C12.8865 16.9008 12.667 17.4377 12.667 17.9975C12.667 18.5573 12.8865 19.0942 13.2772 19.4901C13.6679 19.8859 14.1978 20.1083 14.7503 20.1083Z" fill="#1790F7"/>
</svg>
