<svg width="120" height="73" viewBox="0 0 120 73" fill="none" xmlns="http://www.w3.org/2000/svg">
<path d="M58.5003 29.7758V31.8867C56.8427 31.8867 55.253 32.5538 54.0809 33.7414C52.9088 34.929 52.2503 36.5397 52.2503 38.2192H50.167C50.167 35.9799 51.045 33.8323 52.6078 32.2488C54.1706 30.6654 56.2902 29.7758 58.5003 29.7758ZM58.5003 28.7204C55.0472 28.7204 52.2503 25.8866 52.2503 22.3879C52.2503 18.8892 55.0472 16.0554 58.5003 16.0554C61.9535 16.0554 64.7503 18.8892 64.7503 22.3879C64.7503 25.8866 61.9535 28.7204 58.5003 28.7204ZM58.5003 26.6096C60.8024 26.6096 62.667 24.7204 62.667 22.3879C62.667 20.0554 60.8024 18.1663 58.5003 18.1663C56.1982 18.1663 54.3337 20.0554 54.3337 22.3879C54.3337 24.7204 56.1982 26.6096 58.5003 26.6096ZM68.3399 36.1421L69.9066 37.7295L68.4337 39.2218L66.867 37.6345C65.9934 38.1564 64.9619 38.3375 63.9659 38.144C62.9699 37.9505 62.0778 37.3955 61.4567 36.5832C60.8357 35.7709 60.5283 34.7569 60.5923 33.7314C60.6564 32.7059 61.0873 31.7393 61.8044 31.0127C62.5215 30.2861 63.4756 29.8495 64.4877 29.7846C65.4998 29.7198 66.5006 30.0312 67.3023 30.6604C68.1041 31.2897 68.6518 32.1936 68.8428 33.2027C69.0338 34.2119 68.855 35.257 68.3399 36.1421ZM64.7503 36.1083C65.3029 36.1083 65.8328 35.8859 66.2235 35.4901C66.6142 35.0942 66.8337 34.5573 66.8337 33.9975C66.8337 33.4377 66.6142 32.9008 66.2235 32.5049C65.8328 32.1091 65.3029 31.8867 64.7503 31.8867C64.1978 31.8867 63.6679 32.1091 63.2772 32.5049C62.8865 32.9008 62.667 33.4377 62.667 33.9975C62.667 34.5573 62.8865 35.0942 63.2772 35.4901C63.6679 35.8859 64.1978 36.1083 64.7503 36.1083Z" fill="#1790F7"/>
<path d="M31.092 58.3301V49.9301H34.656C35.152 49.9301 35.6 50.0501 36 50.2901C36.408 50.5221 36.728 50.8421 36.96 51.2501C37.2 51.6581 37.32 52.1181 37.32 52.6301C37.32 53.1501 37.2 53.6181 36.96 54.0341C36.728 54.4501 36.408 54.7821 36 55.0301C35.6 55.2701 35.152 55.3901 34.656 55.3901H32.892V58.3301H31.092ZM32.868 53.7701H34.452C34.644 53.7701 34.816 53.7221 34.968 53.6261C35.12 53.5221 35.24 53.3861 35.328 53.2181C35.424 53.0501 35.472 52.8581 35.472 52.6421C35.472 52.4261 35.424 52.2381 35.328 52.0781C35.24 51.9101 35.12 51.7821 34.968 51.6941C34.816 51.5981 34.644 51.5501 34.452 51.5501H32.868V53.7701ZM40.9507 58.4501C40.4227 58.4501 39.9467 58.3061 39.5227 58.0181C39.0987 57.7301 38.7627 57.3381 38.5147 56.8421C38.2667 56.3461 38.1427 55.7781 38.1427 55.1381C38.1427 54.4981 38.2667 53.9341 38.5147 53.4461C38.7707 52.9501 39.1147 52.5621 39.5467 52.2821C39.9787 51.9941 40.4707 51.8501 41.0227 51.8501C41.3347 51.8501 41.6187 51.8981 41.8747 51.9941C42.1387 52.0821 42.3667 52.2061 42.5587 52.3661C42.7587 52.5261 42.9267 52.7101 43.0627 52.9181C43.1987 53.1261 43.2947 53.3501 43.3507 53.5901L42.9907 53.5301V51.9821H44.6827V58.3301H42.9667V56.8061L43.3507 56.7701C43.2867 56.9941 43.1827 57.2061 43.0387 57.4061C42.8947 57.6061 42.7147 57.7861 42.4987 57.9461C42.2907 58.0981 42.0547 58.2221 41.7907 58.3181C41.5267 58.4061 41.2467 58.4501 40.9507 58.4501ZM41.4187 56.9741C41.7387 56.9741 42.0187 56.8981 42.2587 56.7461C42.4987 56.5941 42.6827 56.3821 42.8107 56.1101C42.9467 55.8301 43.0147 55.5061 43.0147 55.1381C43.0147 54.7781 42.9467 54.4621 42.8107 54.1901C42.6827 53.9181 42.4987 53.7061 42.2587 53.5541C42.0187 53.3941 41.7387 53.3141 41.4187 53.3141C41.1067 53.3141 40.8307 53.3941 40.5907 53.5541C40.3587 53.7061 40.1747 53.9181 40.0387 54.1901C39.9027 54.4621 39.8347 54.7781 39.8347 55.1381C39.8347 55.5061 39.9027 55.8301 40.0387 56.1101C40.1747 56.3821 40.3587 56.5941 40.5907 56.7461C40.8307 56.8981 41.1067 56.9741 41.4187 56.9741ZM49.1511 58.4501C48.5431 58.4501 47.9991 58.3061 47.5191 58.0181C47.0391 57.7301 46.6591 57.3381 46.3791 56.8421C46.1071 56.3461 45.9711 55.7821 45.9711 55.1501C45.9711 54.5261 46.1071 53.9661 46.3791 53.4701C46.6591 52.9661 47.0391 52.5701 47.5191 52.2821C47.9991 51.9941 48.5431 51.8501 49.1511 51.8501C49.7191 51.8501 50.2391 51.9541 50.7111 52.1621C51.1831 52.3701 51.5511 52.6581 51.8151 53.0261L50.8791 54.1541C50.7671 54.0021 50.6271 53.8661 50.4591 53.7461C50.2911 53.6181 50.1071 53.5181 49.9071 53.4461C49.7151 53.3741 49.5151 53.3381 49.3071 53.3381C48.9791 53.3381 48.6871 53.4181 48.4311 53.5781C48.1831 53.7301 47.9871 53.9421 47.8431 54.2141C47.6991 54.4861 47.6271 54.7981 47.6271 55.1501C47.6271 55.4941 47.6991 55.8021 47.8431 56.0741C47.9951 56.3381 48.1991 56.5541 48.4551 56.7221C48.7111 56.8821 48.9991 56.9621 49.3191 56.9621C49.5271 56.9621 49.7231 56.9341 49.9071 56.8781C50.0911 56.8141 50.2631 56.7221 50.4231 56.6021C50.5911 56.4821 50.7431 56.3381 50.8791 56.1701L51.8031 57.2981C51.5311 57.6421 51.1551 57.9221 50.6751 58.1381C50.1951 58.3461 49.6871 58.4501 49.1511 58.4501ZM53.039 58.3301V51.9821H54.743V58.3301H53.039ZM53.879 50.6741C53.551 50.6741 53.295 50.5941 53.111 50.4341C52.927 50.2741 52.835 50.0461 52.835 49.7501C52.835 49.4781 52.927 49.2581 53.111 49.0901C53.303 48.9141 53.559 48.8261 53.879 48.8261C54.207 48.8261 54.463 48.9101 54.647 49.0781C54.831 49.2381 54.923 49.4621 54.923 49.7501C54.923 50.0301 54.827 50.2541 54.635 50.4221C54.451 50.5901 54.199 50.6741 53.879 50.6741ZM59.5749 58.4501C58.8869 58.4501 58.2869 58.3101 57.7749 58.0301C57.2629 57.7501 56.8629 57.3661 56.5749 56.8781C56.2869 56.3901 56.1429 55.8301 56.1429 55.1981C56.1429 54.7101 56.2229 54.2621 56.3829 53.8541C56.5429 53.4461 56.7669 53.0941 57.0549 52.7981C57.3429 52.4941 57.6829 52.2621 58.0749 52.1021C58.4749 51.9341 58.9069 51.8501 59.3709 51.8501C59.8029 51.8501 60.2029 51.9301 60.5709 52.0901C60.9389 52.2421 61.2549 52.4621 61.5189 52.7501C61.7909 53.0301 61.9989 53.3621 62.1429 53.7461C62.2869 54.1301 62.3509 54.5501 62.3349 55.0061L62.3229 55.5341H57.2229L56.9469 54.4901H60.9189L60.7269 54.7061V54.4421C60.7109 54.2261 60.6389 54.0301 60.5109 53.8541C60.3909 53.6781 60.2349 53.5421 60.0429 53.4461C59.8509 53.3501 59.6349 53.3021 59.3949 53.3021C59.0429 53.3021 58.7429 53.3701 58.4949 53.5061C58.2549 53.6421 58.0709 53.8421 57.9429 54.1061C57.8149 54.3701 57.7509 54.6901 57.7509 55.0661C57.7509 55.4501 57.8309 55.7821 57.9909 56.0621C58.1589 56.3421 58.3909 56.5621 58.6869 56.7221C58.9909 56.8741 59.3469 56.9501 59.7549 56.9501C60.0349 56.9501 60.2909 56.9061 60.5229 56.8181C60.7549 56.7301 61.0029 56.5781 61.2669 56.3621L62.0829 57.5021C61.8509 57.7101 61.5949 57.8861 61.3149 58.0301C61.0349 58.1661 60.7469 58.2701 60.4509 58.3421C60.1549 58.4141 59.8629 58.4501 59.5749 58.4501ZM63.5942 58.3301V51.9821H65.2262L65.2742 53.2781L64.9382 53.4221C65.0262 53.1341 65.1822 52.8741 65.4062 52.6421C65.6382 52.4021 65.9142 52.2101 66.2342 52.0661C66.5542 51.9221 66.8902 51.8501 67.2422 51.8501C67.7222 51.8501 68.1222 51.9461 68.4422 52.1381C68.7702 52.3301 69.0142 52.6221 69.1742 53.0141C69.3422 53.3981 69.4262 53.8741 69.4262 54.4421V58.3301H67.7222V54.5741C67.7222 54.2861 67.6822 54.0461 67.6022 53.8541C67.5222 53.6621 67.3982 53.5221 67.2302 53.4341C67.0702 53.3381 66.8702 53.2981 66.6302 53.3141C66.4382 53.3141 66.2582 53.3461 66.0902 53.4101C65.9302 53.4661 65.7902 53.5501 65.6702 53.6621C65.5582 53.7741 65.4662 53.9021 65.3942 54.0461C65.3302 54.1901 65.2982 54.3461 65.2982 54.5141V58.3301H64.4582C64.2742 58.3301 64.1102 58.3301 63.9662 58.3301C63.8222 58.3301 63.6982 58.3301 63.5942 58.3301ZM71.671 58.3301V50.3741H73.375V58.3301H71.671ZM70.483 53.5061V51.9821H74.671V53.5061H70.483ZM78.7351 58.4501C78.0471 58.4501 77.4471 58.3101 76.9351 58.0301C76.4231 57.7501 76.0231 57.3661 75.7351 56.8781C75.4471 56.3901 75.3031 55.8301 75.3031 55.1981C75.3031 54.7101 75.3831 54.2621 75.5431 53.8541C75.7031 53.4461 75.9271 53.0941 76.2151 52.7981C76.5031 52.4941 76.8431 52.2621 77.2351 52.1021C77.6351 51.9341 78.0671 51.8501 78.5311 51.8501C78.9631 51.8501 79.3631 51.9301 79.7311 52.0901C80.0991 52.2421 80.4151 52.4621 80.6791 52.7501C80.9511 53.0301 81.1591 53.3621 81.3031 53.7461C81.4471 54.1301 81.5111 54.5501 81.4951 55.0061L81.4831 55.5341H76.3831L76.1071 54.4901H80.0791L79.8871 54.7061V54.4421C79.8711 54.2261 79.7991 54.0301 79.6711 53.8541C79.5511 53.6781 79.3951 53.5421 79.2031 53.4461C79.0111 53.3501 78.7951 53.3021 78.5551 53.3021C78.2031 53.3021 77.9031 53.3701 77.6551 53.5061C77.4151 53.6421 77.2311 53.8421 77.1031 54.1061C76.9751 54.3701 76.9111 54.6901 76.9111 55.0661C76.9111 55.4501 76.9911 55.7821 77.1511 56.0621C77.3191 56.3421 77.5511 56.5621 77.8471 56.7221C78.1511 56.8741 78.5071 56.9501 78.9151 56.9501C79.1951 56.9501 79.4511 56.9061 79.6831 56.8181C79.9151 56.7301 80.1631 56.5781 80.4271 56.3621L81.2431 57.5021C81.0111 57.7101 80.7551 57.8861 80.4751 58.0301C80.1951 58.1661 79.9071 58.2701 79.6111 58.3421C79.3151 58.4141 79.0231 58.4501 78.7351 58.4501ZM84.8903 58.4501C84.2983 58.4501 83.7703 58.3541 83.3063 58.1621C82.8503 57.9621 82.4823 57.6901 82.2023 57.3461L83.2583 56.4341C83.5063 56.6981 83.7823 56.8901 84.0863 57.0101C84.3903 57.1221 84.6943 57.1781 84.9983 57.1781C85.1183 57.1781 85.2263 57.1661 85.3223 57.1421C85.4263 57.1101 85.5143 57.0701 85.5863 57.0221C85.6583 56.9661 85.7103 56.9021 85.7423 56.8301C85.7823 56.7501 85.8023 56.6661 85.8023 56.5781C85.8023 56.4021 85.7303 56.2621 85.5863 56.1581C85.5063 56.1181 85.3823 56.0701 85.2143 56.0141C85.0463 55.9501 84.8303 55.8821 84.5663 55.8101C84.1583 55.7061 83.8103 55.5861 83.5223 55.4501C83.2423 55.3061 83.0183 55.1461 82.8503 54.9701C82.7063 54.8021 82.5943 54.6221 82.5143 54.4301C82.4423 54.2301 82.4063 54.0101 82.4063 53.7701C82.4063 53.4821 82.4703 53.2221 82.5983 52.9901C82.7263 52.7501 82.9023 52.5461 83.1263 52.3781C83.3583 52.2101 83.6223 52.0821 83.9183 51.9941C84.2143 51.8981 84.5263 51.8501 84.8543 51.8501C85.1823 51.8501 85.5023 51.8901 85.8143 51.9701C86.1263 52.0501 86.4143 52.1661 86.6783 52.3181C86.9503 52.4621 87.1863 52.6341 87.3863 52.8341L86.4743 53.8421C86.3303 53.7061 86.1663 53.5821 85.9823 53.4701C85.8063 53.3581 85.6223 53.2701 85.4303 53.2061C85.2383 53.1421 85.0663 53.1101 84.9143 53.1101C84.7783 53.1101 84.6543 53.1221 84.5423 53.1461C84.4383 53.1701 84.3503 53.2061 84.2783 53.2541C84.2063 53.3021 84.1503 53.3661 84.1103 53.4461C84.0783 53.5181 84.0623 53.5981 84.0623 53.6861C84.0623 53.7741 84.0823 53.8581 84.1223 53.9381C84.1703 54.0181 84.2343 54.0861 84.3143 54.1421C84.4023 54.1901 84.5303 54.2461 84.6983 54.3101C84.8743 54.3741 85.1103 54.4461 85.4063 54.5261C85.7903 54.6301 86.1143 54.7461 86.3783 54.8741C86.6503 55.0021 86.8663 55.1501 87.0263 55.3181C87.1623 55.4621 87.2623 55.6261 87.3263 55.8101C87.3903 55.9941 87.4223 56.1981 87.4223 56.4221C87.4223 56.8141 87.3103 57.1661 87.0863 57.4781C86.8703 57.7821 86.5703 58.0221 86.1863 58.1981C85.8023 58.3661 85.3703 58.4501 84.8903 58.4501Z" fill="#1790F7"/>
</svg>
