<svg width="25" height="26" viewBox="0 0 25 26" fill="none" xmlns="http://www.w3.org/2000/svg">
<path d="M12.5 0.636475C10.8585 0.636475 9.23303 0.952152 7.71646 1.56548C6.19989 2.17881 4.8219 3.07779 3.66117 4.21108C1.31696 6.49986 0 9.60411 0 12.8409C0 16.0778 1.31696 19.182 3.66117 21.4708C4.8219 22.6041 6.19989 23.503 7.71646 24.1164C9.23303 24.7297 10.8585 25.0454 12.5 25.0454C15.8152 25.0454 18.9946 23.7596 21.3388 21.4708C23.683 19.182 25 16.0778 25 12.8409C25 11.2382 24.6767 9.6512 24.0485 8.17049C23.4203 6.68977 22.4996 5.34436 21.3388 4.21108C20.1781 3.07779 18.8001 2.17881 17.2835 1.56548C15.767 0.952152 14.1415 0.636475 12.5 0.636475ZM6.3375 20.5053C6.875 19.4069 10.15 18.3329 12.5 18.3329C14.85 18.3329 18.125 19.4069 18.6625 20.5053C16.9117 21.8674 14.7386 22.6076 12.5 22.6045C10.175 22.6045 8.0375 21.8234 6.3375 20.5053ZM20.45 18.7357C18.6625 16.6121 14.325 15.892 12.5 15.892C10.675 15.892 6.3375 16.6121 4.55 18.7357C3.22023 17.0449 2.49958 14.9727 2.5 12.8409C2.5 7.45876 6.9875 3.07737 12.5 3.07737C18.0125 3.07737 22.5 7.45876 22.5 12.8409C22.5 15.0621 21.725 17.1125 20.45 18.7357ZM12.5 5.51826C10.075 5.51826 8.125 7.42215 8.125 9.78981C8.125 12.1575 10.075 14.0614 12.5 14.0614C14.925 14.0614 16.875 12.1575 16.875 9.78981C16.875 7.42215 14.925 5.51826 12.5 5.51826ZM12.5 11.6205C12.0027 11.6205 11.5258 11.4276 11.1742 11.0843C10.8225 10.741 10.625 10.2753 10.625 9.78981C10.625 9.30429 10.8225 8.83865 11.1742 8.49534C11.5258 8.15202 12.0027 7.95915 12.5 7.95915C12.9973 7.95915 13.4742 8.15202 13.8258 8.49534C14.1775 8.83865 14.375 9.30429 14.375 9.78981C14.375 10.2753 14.1775 10.741 13.8258 11.0843C13.4742 11.4276 12.9973 11.6205 12.5 11.6205Z" fill="#1790F7"/>
</svg>
