<svg width="120" height="73" viewBox="0 0 120 73" fill="none" xmlns="http://www.w3.org/2000/svg">
<path d="M62.5 19.6365C60.8585 19.6365 59.233 19.9522 57.7165 20.5655C56.1999 21.1788 54.8219 22.0778 53.6612 23.2111C51.317 25.4999 50 28.6041 50 31.8409C50 35.0778 51.317 38.182 53.6612 40.4708C54.8219 41.6041 56.1999 42.503 57.7165 43.1164C59.233 43.7297 60.8585 44.0454 62.5 44.0454C65.8152 44.0454 68.9946 42.7596 71.3388 40.4708C73.683 38.182 75 35.0778 75 31.8409C75 30.2382 74.6767 28.6512 74.0485 27.1705C73.4203 25.6898 72.4996 24.3444 71.3388 23.2111C70.1781 22.0778 68.8001 21.1788 67.2835 20.5655C65.767 19.9522 64.1415 19.6365 62.5 19.6365ZM56.3375 39.5053C56.875 38.4069 60.15 37.3329 62.5 37.3329C64.85 37.3329 68.125 38.4069 68.6625 39.5053C66.9117 40.8674 64.7386 41.6076 62.5 41.6045C60.175 41.6045 58.0375 40.8234 56.3375 39.5053ZM70.45 37.7357C68.6625 35.6121 64.325 34.892 62.5 34.892C60.675 34.892 56.3375 35.6121 54.55 37.7357C53.2202 36.0449 52.4996 33.9727 52.5 31.8409C52.5 26.4588 56.9875 22.0774 62.5 22.0774C68.0125 22.0774 72.5 26.4588 72.5 31.8409C72.5 34.0621 71.725 36.1125 70.45 37.7357ZM62.5 24.5183C60.075 24.5183 58.125 26.4222 58.125 28.7898C58.125 31.1575 60.075 33.0614 62.5 33.0614C64.925 33.0614 66.875 31.1575 66.875 28.7898C66.875 26.4222 64.925 24.5183 62.5 24.5183ZM62.5 30.6205C62.0027 30.6205 61.5258 30.4276 61.1742 30.0843C60.8225 29.741 60.625 29.2753 60.625 28.7898C60.625 28.3043 60.8225 27.8387 61.1742 27.4953C61.5258 27.152 62.0027 26.9591 62.5 26.9591C62.9973 26.9591 63.4742 27.152 63.8258 27.4953C64.1775 27.8387 64.375 28.3043 64.375 28.7898C64.375 29.2753 64.1775 29.741 63.8258 30.0843C63.4742 30.4276 62.9973 30.6205 62.5 30.6205Z" fill="#1790F7"/>
<path d="M47.092 62V53.6H50.656C51.152 53.6 51.6 53.72 52 53.96C52.408 54.192 52.728 54.512 52.96 54.92C53.2 55.328 53.32 55.788 53.32 56.3C53.32 56.82 53.2 57.288 52.96 57.704C52.728 58.12 52.408 58.452 52 58.7C51.6 58.94 51.152 59.06 50.656 59.06H48.892V62H47.092ZM48.868 57.44H50.452C50.644 57.44 50.816 57.392 50.968 57.296C51.12 57.192 51.24 57.056 51.328 56.888C51.424 56.72 51.472 56.528 51.472 56.312C51.472 56.096 51.424 55.908 51.328 55.748C51.24 55.58 51.12 55.452 50.968 55.364C50.816 55.268 50.644 55.22 50.452 55.22H48.868V57.44ZM57.5867 62.12C56.8987 62.12 56.2987 61.98 55.7867 61.7C55.2747 61.42 54.8747 61.036 54.5867 60.548C54.2987 60.06 54.1547 59.5 54.1547 58.868C54.1547 58.38 54.2347 57.932 54.3947 57.524C54.5547 57.116 54.7787 56.764 55.0667 56.468C55.3547 56.164 55.6947 55.932 56.0867 55.772C56.4867 55.604 56.9187 55.52 57.3827 55.52C57.8147 55.52 58.2147 55.6 58.5827 55.76C58.9507 55.912 59.2667 56.132 59.5307 56.42C59.8027 56.7 60.0107 57.032 60.1547 57.416C60.2987 57.8 60.3627 58.22 60.3467 58.676L60.3347 59.204H55.2347L54.9587 58.16H58.9307L58.7387 58.376V58.112C58.7227 57.896 58.6507 57.7 58.5227 57.524C58.4027 57.348 58.2467 57.212 58.0547 57.116C57.8627 57.02 57.6467 56.972 57.4067 56.972C57.0547 56.972 56.7547 57.04 56.5067 57.176C56.2667 57.312 56.0827 57.512 55.9547 57.776C55.8267 58.04 55.7627 58.36 55.7627 58.736C55.7627 59.12 55.8427 59.452 56.0027 59.732C56.1707 60.012 56.4027 60.232 56.6987 60.392C57.0027 60.544 57.3587 60.62 57.7667 60.62C58.0467 60.62 58.3027 60.576 58.5347 60.488C58.7667 60.4 59.0147 60.248 59.2787 60.032L60.0947 61.172C59.8627 61.38 59.6067 61.556 59.3267 61.7C59.0467 61.836 58.7587 61.94 58.4627 62.012C58.1667 62.084 57.8747 62.12 57.5867 62.12ZM61.6059 62V55.652H63.2499L63.3099 57.692L63.0219 57.272C63.1179 56.944 63.2739 56.648 63.4899 56.384C63.7059 56.112 63.9579 55.9 64.2459 55.748C64.5419 55.596 64.8499 55.52 65.1699 55.52C65.3059 55.52 65.4379 55.532 65.5659 55.556C65.6939 55.58 65.8019 55.608 65.8899 55.64L65.4339 57.512C65.3379 57.464 65.2219 57.424 65.0859 57.392C64.9499 57.352 64.8099 57.332 64.6659 57.332C64.4739 57.332 64.2939 57.368 64.1259 57.44C63.9659 57.504 63.8259 57.6 63.7059 57.728C63.5859 57.848 63.4899 57.992 63.4179 58.16C63.3539 58.328 63.3219 58.512 63.3219 58.712V62H61.6059ZM67.3596 62V55.208C67.3596 54.816 67.4476 54.46 67.6236 54.14C67.7996 53.82 68.0396 53.568 68.3436 53.384C68.6556 53.2 69.0196 53.108 69.4356 53.108C69.7156 53.108 69.9796 53.156 70.2276 53.252C70.4756 53.34 70.6876 53.464 70.8636 53.624L70.3596 54.872C70.2556 54.808 70.1476 54.756 70.0356 54.716C69.9316 54.668 69.8356 54.644 69.7476 54.644C69.5956 54.644 69.4676 54.672 69.3636 54.728C69.2676 54.776 69.1956 54.852 69.1476 54.956C69.0996 55.052 69.0756 55.176 69.0756 55.328V62H68.2236C68.0396 62 67.8756 62 67.7316 62C67.5876 62 67.4636 62 67.3596 62ZM66.4116 57.248V55.808H70.4436V57.248H66.4116ZM71.7276 62V55.652H73.4316V62H71.7276ZM72.5676 54.344C72.2396 54.344 71.9836 54.264 71.7996 54.104C71.6156 53.944 71.5236 53.716 71.5236 53.42C71.5236 53.148 71.6156 52.928 71.7996 52.76C71.9916 52.584 72.2476 52.496 72.5676 52.496C72.8956 52.496 73.1516 52.58 73.3356 52.748C73.5196 52.908 73.6116 53.132 73.6116 53.42C73.6116 53.7 73.5156 53.924 73.3236 54.092C73.1396 54.26 72.8876 54.344 72.5676 54.344ZM75.2703 62V53.12H76.9743V62H75.2703Z" fill="#1790F7"/>
</svg>
